M48
; DRILL file {KiCad 9.0.1} date 2025-05-22T16:35:09-0400
; FORMAT={-:-/ absolute / metric / decimal}
; #@! TF.CreationDate,2025-05-22T16:35:09-04:00
; #@! TF.GenerationSoftware,Kicad,Pcbnew,9.0.1
; #@! TF.FileFunction,Plated,1,2,PTH
FMAT,2
METRIC
; #@! TA.AperFunction,Plated,PTH,ComponentDrill
T1C0.700
; #@! TA.AperFunction,Plated,PTH,ComponentDrill
T2C0.750
; #@! TA.AperFunction,Plated,PTH,ComponentDrill
T3C0.800
; #@! TA.AperFunction,Plated,PTH,ComponentDrill
T4C0.900
; #@! TA.AperFunction,Plated,PTH,ViaDrill
T5C1.000
; #@! TA.AperFunction,Plated,PTH,ComponentDrill
T6C1.000
; #@! TA.AperFunction,Plated,PTH,ComponentDrill
T7C1.500
%
G90
G05
T1
X150.09Y-105.1
T2
X176.01Y-61.8
X176.01Y-63.07
X176.01Y-64.34
T3
X144.99Y-117.8
X145.01Y-105.1
X147.53Y-117.8
X147.55Y-105.1
X150.07Y-117.8
X152.61Y-117.8
X152.63Y-105.1
X155.15Y-117.8
X155.17Y-105.1
X157.69Y-117.8
X157.71Y-105.1
X160.23Y-117.8
X160.25Y-105.1
X162.77Y-117.8
X162.79Y-105.1
X215.01Y-97.9
X215.01Y-100.44
X215.01Y-102.98
X215.01Y-105.52
X216.12Y-116.67
X216.12Y-120.07
T4
X170.01Y-63.3
X170.01Y-65.84
X170.01Y-86.8
X170.01Y-89.34
T5
X141.792Y-86.313
X167.345Y-110.646
X177.45Y-106.07
X177.53Y-99.28
X229.575Y-103.026
T6
X150.03Y-124.5
X152.57Y-124.5
X155.11Y-124.5
X157.65Y-124.5
X169.906Y-114.697
X172.446Y-114.697
X174.986Y-114.697
X175.93Y-54.3
X177.526Y-114.697
X178.47Y-54.3
X180.066Y-114.697
X181.01Y-54.3
X182.33Y-72.72
X182.33Y-87.96
X183.55Y-54.3
X184.87Y-72.72
X184.87Y-87.96
X187.41Y-72.72
X187.41Y-87.96
X189.95Y-72.72
X189.95Y-87.96
X192.49Y-72.72
X192.49Y-87.96
X192.5Y-97.61
X195.03Y-72.72
X195.03Y-87.96
X195.04Y-97.61
X197.57Y-72.72
X197.57Y-87.96
X197.58Y-97.61
X200.11Y-72.72
X200.11Y-87.96
X200.12Y-97.61
X202.65Y-72.72
X202.65Y-87.96
X205.19Y-72.72
X205.19Y-87.96
X207.73Y-72.72
X207.73Y-87.96
X210.27Y-72.72
X210.27Y-87.96
X212.81Y-72.72
X212.81Y-87.96
X215.35Y-72.72
X215.35Y-87.96
X217.89Y-72.72
X217.89Y-87.96
X231.692Y-54.212
X231.692Y-56.752
T7
X151.97Y-60.72
X151.97Y-86.3
X160.97Y-69.72
X160.97Y-95.3
X191.59Y-54.23
X191.59Y-61.23
X206.09Y-54.23
X206.09Y-61.23
M30
